<svg width="122" height="33" viewBox="0 0 122 33" fill="none" xmlns="http://www.w3.org/2000/svg">
<path d="M10.9543 12.2105C11.147 12.2105 11.2915 12.2586 11.436 12.403C11.5805 12.5473 11.6287 12.6916 11.6287 12.9321V14.9525C11.6287 15.1449 11.5805 15.2892 11.436 15.4335C11.3397 15.5778 11.147 15.6259 10.9543 15.6259H3.68054V19.7628C3.68054 20.0034 3.63237 20.1477 3.48785 20.2439C3.34334 20.3401 3.19883 20.4363 3.00615 20.4363H1.03115C0.7903 20.4363 0.645788 20.3882 0.501276 20.2439C0.356764 20.0996 0.308594 19.9553 0.308594 19.7628V2.15685C0.308594 1.72392 0.549447 1.4834 0.982982 1.4834H13.122C13.3147 1.4834 13.5073 1.5315 13.6037 1.67581C13.7 1.82013 13.7964 1.96444 13.7964 2.15685V4.17721C13.7964 4.41773 13.7482 4.56204 13.6037 4.70635C13.4592 4.85066 13.3147 4.89877 13.122 4.89877H3.68054V12.2105H10.9543Z" fill="#0B85C3"/>
<path d="M34.6542 20.4845C34.1725 20.4845 33.9316 20.3402 33.9316 20.0035C33.9316 19.811 33.9316 19.7148 33.9316 19.6667C33.9316 19.6186 33.9798 19.5705 33.9798 19.5705L41.928 1.48349C41.9761 1.38728 42.0725 1.29107 42.1206 1.14676C42.217 1.00245 42.4578 0.954346 42.795 0.954346H42.9395C43.1322 0.954346 43.2767 0.954346 43.3731 1.00245C43.4694 1.05055 43.5658 1.09866 43.6139 1.14676C43.6139 1.24297 43.6621 1.33918 43.6621 1.38728C43.6621 1.43538 43.7103 1.53159 43.7103 1.53159C44.3365 3.02281 44.9145 4.32161 45.3962 5.3799C45.8779 6.43818 46.3115 7.40026 46.6969 8.21802C47.0822 9.03578 47.4676 9.80545 47.8048 10.527C48.142 11.2486 48.5273 12.0182 48.9127 12.836C49.2981 13.6538 49.7316 14.6158 50.1651 15.6741C50.6468 16.7324 51.1767 18.0312 51.8029 19.5224L51.8511 19.7148C51.8511 19.7629 51.8993 19.8591 51.8993 19.9072C51.8993 19.9553 51.8993 20.0035 51.8993 20.0035C51.8993 20.3402 51.6584 20.4845 51.1767 20.4845H34.6542ZM38.6524 17.0691H47.1304L42.795 7.20784L38.6524 17.0691Z" fill="#FAAB34"/>
<path d="M63.8938 17.7907C64.6645 17.7907 65.4834 17.6464 66.2541 17.3577C67.0249 17.0691 67.7474 16.6843 68.3736 16.107C68.47 16.0108 68.5663 15.9627 68.7108 15.9146C68.8553 15.8665 68.9517 15.8184 69.0962 15.8184C69.2889 15.8184 69.4334 15.8665 69.5297 16.0108L70.6377 17.5501C70.6858 17.6464 70.734 17.7426 70.734 17.8388C70.734 18.0312 70.6858 18.1755 70.5413 18.3198C70.3968 18.4641 70.2523 18.6084 70.156 18.7046C69.2889 19.33 68.3736 19.8591 67.3139 20.244C66.3023 20.6288 65.1462 20.8212 63.9419 20.8212C62.5932 20.8212 61.2926 20.5807 60.0883 20.0515C58.884 19.5224 57.8243 18.849 56.909 17.935C55.9938 17.021 55.3194 15.9627 54.7895 14.7601C54.2597 13.5575 54.0188 12.2587 54.0188 10.9118C54.0188 9.56492 54.2597 8.26612 54.7895 7.06352C55.3194 5.86093 55.9938 4.80264 56.909 3.88867C57.8243 2.9747 58.884 2.30124 60.0883 1.7721C61.2926 1.24296 62.5932 1.00244 63.9419 1.00244C64.9535 1.00244 65.9651 1.14675 66.9285 1.48348C67.8919 1.82021 68.9035 2.30124 69.9151 3.0228C70.3486 3.31142 70.5413 3.64815 70.5413 3.93677C70.5413 4.08108 70.4932 4.17729 70.445 4.2735L69.3371 5.90903C69.2407 6.10144 69.048 6.19765 68.8553 6.19765C68.8072 6.19765 68.7108 6.14955 68.6145 6.10144C68.5182 6.05334 68.3736 5.95713 68.2773 5.86093C67.6511 5.37989 66.9767 4.99506 66.3023 4.70643C65.5797 4.41781 64.809 4.2735 63.9419 4.2735C63.0267 4.2735 62.1115 4.46592 61.2926 4.80264C60.4737 5.13937 59.7511 5.66851 59.1249 6.24576C58.4987 6.8711 58.017 7.59266 57.6798 8.41043C57.3426 9.22819 57.1499 10.0941 57.1499 11.0561C57.1499 11.9701 57.3426 12.8841 57.6798 13.7018C58.017 14.5196 58.4987 15.2412 59.1249 15.8665C59.7511 16.4919 60.4737 16.9729 61.2926 17.3096C62.1115 17.6464 62.9304 17.7907 63.8938 17.7907Z" fill="#0B85C3"/>
<path d="M87.5456 1.4834H73.4798C73.1426 1.4834 72.998 1.62771 72.998 1.96444V4.27342C72.998 4.65825 73.1426 4.85066 73.4798 4.85066H78.7785V19.7628C78.7785 20.1958 79.0194 20.4363 79.4529 20.4363H81.5243C82.006 20.4363 82.2468 20.1958 82.2468 19.7628V4.85066H87.5937C87.7383 4.85066 87.8828 4.80256 87.9791 4.65825C88.0755 4.51394 88.0754 4.36963 88.0754 4.27342V1.96444C88.0273 1.62771 87.8828 1.4834 87.5456 1.4834Z" fill="#0B85C3"/>
<path d="M87.1603 20.4845C86.6786 20.4845 86.4377 20.3402 86.4377 20.0034C86.4377 19.811 86.4377 19.7148 86.4377 19.6667C86.4377 19.6186 86.4859 19.5705 86.4859 19.5705L94.4341 1.53158C94.4822 1.43538 94.5786 1.33917 94.6267 1.19486C94.7231 1.05055 94.9158 1.00244 95.253 1.00244H95.3975C95.5902 1.00244 95.7347 1.00244 95.831 1.05055C95.9274 1.09865 96.0237 1.14675 96.0719 1.19486C96.12 1.24296 96.1682 1.33917 96.1682 1.38727C96.1682 1.43538 96.2164 1.53158 96.2164 1.53158C96.8426 3.0228 97.4206 4.3216 97.9024 5.37989C98.3841 6.43817 98.8176 7.40025 99.203 8.21801C99.5883 9.03578 99.9737 9.80544 100.311 10.527C100.648 11.2486 101.033 12.0182 101.419 12.836C101.804 13.6537 102.238 14.6158 102.671 15.6741C103.153 16.7324 103.683 18.0312 104.309 19.5224L104.357 19.7148C104.357 19.7629 104.405 19.8591 104.405 19.9072C104.405 19.9553 104.405 20.0034 104.405 20.0034C104.405 20.3402 104.165 20.4845 103.731 20.4845H87.1603ZM91.2066 17.0691H99.6847L95.3493 7.20783L91.2066 17.0691Z" fill="#FAAB34"/>
<path d="M121.169 17.069C121.361 17.069 121.506 17.1171 121.65 17.2614C121.795 17.4058 121.843 17.5982 121.843 17.7906V19.7628C121.843 19.9553 121.795 20.0996 121.65 20.2439C121.506 20.3882 121.361 20.4363 121.169 20.4363H108.596C108.163 20.4363 107.922 20.1958 107.922 19.7628V2.15685C107.922 1.96444 107.97 1.82013 108.115 1.67581C108.259 1.5315 108.404 1.4834 108.644 1.4834H110.619C110.812 1.4834 110.957 1.5315 111.101 1.67581C111.246 1.77202 111.294 1.96444 111.294 2.15685V17.069H121.169Z" fill="#0B85C3"/>
<path d="M29.1627 12.4992C29.5963 12.1143 29.9816 11.6333 30.2707 11.1523C30.5597 10.6712 30.8005 10.1421 30.9932 9.56484C31.1377 8.98759 31.2341 8.41035 31.2341 7.8331C31.2341 6.96723 31.0896 6.14947 30.7524 5.37981C30.4152 4.61015 30.0298 3.93669 29.4518 3.35945C28.8737 2.7822 28.2475 2.30116 27.4768 1.96444C26.706 1.62771 25.9353 1.4834 25.0201 1.4834H17.6981C17.4573 1.4834 17.4573 1.4834 17.4573 1.67581V19.7147C17.4573 20.1958 17.6981 20.4844 18.1798 20.4844H20.1548C20.3957 20.4844 20.5402 20.4363 20.6847 20.292C20.781 20.1477 20.8292 20.0034 20.8292 19.8109V14.0866H23.9121L26.9951 19.7147C27.1396 19.9553 27.2841 20.0996 27.4768 20.2439C27.6694 20.3882 27.9103 20.4844 28.1512 20.4844L30.1261 20.3882C30.2707 20.3882 30.367 20.3401 30.5115 20.2439C30.6079 20.1477 30.656 20.0515 30.656 19.9072C30.656 19.8109 30.6079 19.6666 30.5597 19.5704L27.2841 13.6056L27.7176 13.5093C28.2475 13.2207 28.7292 12.884 29.1627 12.4992ZM25.1646 10.8636H20.8292V4.56204H25.1646C26.8987 4.56204 28.3438 5.95705 28.3438 7.73689C28.2957 9.46863 26.8987 10.8636 25.1646 10.8636Z" fill="#0B85C3"/>
<path d="M43.9819 30.8298V24.9498H44.6595V27.1203H44.7169C44.7667 27.0438 44.8356 26.9461 44.9236 26.8275C45.0136 26.7069 45.1418 26.5997 45.3084 26.5059C45.4768 26.4102 45.7046 26.3624 45.9917 26.3624C46.363 26.3624 46.6903 26.4552 46.9736 26.6409C47.2569 26.8265 47.478 27.0897 47.6368 27.4304C47.7957 27.7711 47.8751 28.1731 47.8751 28.6363C47.8751 29.1033 47.7957 29.5082 47.6368 29.8508C47.478 30.1915 47.2579 30.4556 46.9765 30.6432C46.6951 30.8289 46.3707 30.9217 46.0032 30.9217C45.7199 30.9217 45.4931 30.8748 45.3227 30.781C45.1524 30.6853 45.0212 30.5772 44.9294 30.4566C44.8375 30.3341 44.7667 30.2326 44.7169 30.1522H44.6365V30.8298H43.9819ZM44.648 28.6248C44.648 28.9579 44.6968 29.2517 44.7944 29.5062C44.892 29.7589 45.0346 29.957 45.2222 30.1006C45.4098 30.2422 45.6395 30.313 45.9113 30.313C46.1946 30.313 46.431 30.2384 46.6205 30.0891C46.8119 29.9379 46.9554 29.735 47.0511 29.4804C47.1488 29.2239 47.1976 28.9387 47.1976 28.6248C47.1976 28.3147 47.1497 28.0353 47.054 27.7864C46.9602 27.5357 46.8176 27.3376 46.6262 27.1921C46.4367 27.0447 46.1984 26.971 45.9113 26.971C45.6357 26.971 45.4041 27.0409 45.2165 27.1806C45.0289 27.3184 44.8873 27.5118 44.7916 27.7606C44.6958 28.0075 44.648 28.2956 44.648 28.6248ZM51.6909 29.0268V26.4198H52.3685V30.8298H51.6909V30.0833H51.6449C51.5416 30.3073 51.3808 30.4977 51.1626 30.6547C50.9444 30.8097 50.6688 30.8873 50.3357 30.8873C50.0601 30.8873 49.8151 30.827 49.6007 30.7064C49.3863 30.5839 49.2179 30.4001 49.0954 30.1551C48.9729 29.9082 48.9116 29.5972 48.9116 29.222V26.4198H49.5892V29.1761C49.5892 29.4976 49.6792 29.7541 49.8591 29.9455C50.0409 30.1369 50.2725 30.2326 50.5539 30.2326C50.7224 30.2326 50.8937 30.1896 51.0678 30.1034C51.2439 30.0173 51.3913 29.8852 51.51 29.7072C51.6306 29.5292 51.6909 29.3024 51.6909 29.0268ZM50.3357 25.8226L51.0363 24.4904H51.8287L50.9329 25.8226H50.3357ZM56.7333 27.4074L56.1246 27.5797C56.0863 27.4783 56.0299 27.3797 55.9552 27.284C55.8825 27.1864 55.783 27.106 55.6566 27.0428C55.5303 26.9796 55.3686 26.9481 55.1714 26.9481C54.9015 26.9481 54.6766 27.0103 54.4967 27.1347C54.3187 27.2572 54.2297 27.4132 54.2297 27.6027C54.2297 27.7711 54.2909 27.9042 54.4134 28.0018C54.5359 28.0994 54.7273 28.1807 54.9877 28.2458L55.6423 28.4066C56.0366 28.5023 56.3304 28.6487 56.5237 28.8459C56.717 29.0411 56.8137 29.2928 56.8137 29.601C56.8137 29.8536 56.741 30.0795 56.5955 30.2786C56.4519 30.4776 56.251 30.6346 55.9926 30.7494C55.7342 30.8643 55.4336 30.9217 55.091 30.9217C54.6412 30.9217 54.2689 30.8241 53.9741 30.6289C53.6794 30.4336 53.4928 30.1484 53.4143 29.7733L54.0574 29.6125C54.1187 29.8498 54.2345 30.0278 54.4048 30.1465C54.5771 30.2652 54.802 30.3245 55.0795 30.3245C55.3954 30.3245 55.6461 30.2575 55.8318 30.1235C56.0194 29.9876 56.1131 29.8249 56.1131 29.6354C56.1131 29.4823 56.0595 29.3541 55.9524 29.2507C55.8452 29.1454 55.6806 29.067 55.4585 29.0153L54.7235 28.843C54.3196 28.7473 54.023 28.599 53.8335 28.398C53.6459 28.1951 53.5521 27.9415 53.5521 27.6371C53.5521 27.3883 53.622 27.1682 53.7617 26.9768C53.9033 26.7854 54.0957 26.6351 54.3388 26.526C54.5838 26.4169 54.8613 26.3624 55.1714 26.3624C55.6078 26.3624 55.9504 26.4581 56.1993 26.6495C56.45 26.8409 56.628 27.0935 56.7333 27.4074ZM60.8426 32.4836V30.1522H60.7852C60.7354 30.2326 60.6646 30.3341 60.5727 30.4566C60.4809 30.5772 60.3497 30.6853 60.1794 30.781C60.009 30.8748 59.7822 30.9217 59.4989 30.9217C59.1314 30.9217 58.807 30.8289 58.5256 30.6432C58.2442 30.4556 58.0241 30.1915 57.8652 29.8508C57.7064 29.5082 57.6269 29.1033 57.6269 28.6363C57.6269 28.1731 57.7064 27.7711 57.8652 27.4304C58.0241 27.0897 58.2452 26.8265 58.5285 26.6409C58.8118 26.4552 59.1391 26.3624 59.5104 26.3624C59.7975 26.3624 60.0243 26.4102 60.1909 26.5059C60.3593 26.5997 60.4876 26.7069 60.5756 26.8275C60.6656 26.9461 60.7354 27.0438 60.7852 27.1203H60.8656V26.4198H61.5202V32.4836H60.8426ZM59.5908 30.313C59.8626 30.313 60.0923 30.2422 60.2799 30.1006C60.4675 29.957 60.6101 29.7589 60.7077 29.5062C60.8053 29.2517 60.8541 28.9579 60.8541 28.6248C60.8541 28.2956 60.8062 28.0075 60.7105 27.7606C60.6148 27.5118 60.4732 27.3184 60.2856 27.1806C60.098 27.0409 59.8664 26.971 59.5908 26.971C59.3037 26.971 59.0644 27.0447 58.873 27.1921C58.6835 27.3376 58.5409 27.5357 58.4452 27.7864C58.3514 28.0353 58.3045 28.3147 58.3045 28.6248C58.3045 28.9387 58.3524 29.2239 58.4481 29.4804C58.5457 29.735 58.6893 29.9379 58.8788 30.0891C59.0702 30.2384 59.3075 30.313 59.5908 30.313ZM65.5398 29.0268V26.4198H66.2174V30.8298H65.5398V30.0833H65.4938C65.3905 30.3073 65.2297 30.4977 65.0115 30.6547C64.7933 30.8097 64.5177 30.8873 64.1846 30.8873C63.909 30.8873 63.664 30.827 63.4496 30.7064C63.2352 30.5839 63.0668 30.4001 62.9443 30.1551C62.8218 29.9082 62.7605 29.5972 62.7605 29.222V26.4198H63.4381V29.1761C63.4381 29.4976 63.5281 29.7541 63.708 29.9455C63.8898 30.1369 64.1214 30.2326 64.4028 30.2326C64.5713 30.2326 64.7426 30.1896 64.9168 30.1034C65.0928 30.0173 65.2402 29.8852 65.3589 29.7072C65.4795 29.5292 65.5398 29.3024 65.5398 29.0268ZM69.3074 30.9217C68.8825 30.9217 68.516 30.8279 68.2078 30.6403C67.9015 30.4508 67.6651 30.1867 67.4986 29.8479C67.334 29.5072 67.2517 29.111 67.2517 28.6593C67.2517 28.2075 67.334 27.8094 67.4986 27.4649C67.6651 27.1184 67.8967 26.8485 68.1934 26.6552C68.492 26.46 68.8404 26.3624 69.2385 26.3624C69.4682 26.3624 69.695 26.4006 69.919 26.4772C70.1429 26.5538 70.3468 26.6782 70.5305 26.8504C70.7143 27.0208 70.8607 27.2467 70.9698 27.528C71.0789 27.8094 71.1335 28.1559 71.1335 28.5674V28.8545H67.734V28.2688H70.4444C70.4444 28.02 70.3946 27.7979 70.2951 27.6027C70.1975 27.4074 70.0577 27.2534 69.8759 27.1404C69.696 27.0275 69.4835 26.971 69.2385 26.971C68.9686 26.971 68.7351 27.038 68.538 27.172C68.3427 27.3041 68.1925 27.4764 68.0872 27.6888C67.9819 27.9013 67.9293 28.1291 67.9293 28.3721V28.7626C67.9293 29.0957 67.9867 29.378 68.1016 29.6096C68.2183 29.8393 68.3801 30.0144 68.5868 30.135C68.7935 30.2537 69.0337 30.313 69.3074 30.313C69.4854 30.313 69.6462 30.2881 69.7898 30.2384C69.9352 30.1867 70.0606 30.1101 70.1659 30.0087C70.2712 29.9053 70.3525 29.7771 70.4099 29.624L71.0646 29.8077C70.9957 30.0297 70.8798 30.225 70.7172 30.3934C70.5545 30.5599 70.3535 30.6901 70.1142 30.7839C69.875 30.8758 69.606 30.9217 69.3074 30.9217ZM73.8295 30.9217C73.462 30.9217 73.1375 30.8289 72.8561 30.6432C72.5748 30.4556 72.3547 30.1915 72.1958 29.8508C72.0369 29.5082 71.9575 29.1033 71.9575 28.6363C71.9575 28.1731 72.0369 27.7711 72.1958 27.4304C72.3547 27.0897 72.5757 26.8265 72.859 26.6409C73.1423 26.4552 73.4696 26.3624 73.8409 26.3624C74.1281 26.3624 74.3549 26.4102 74.5214 26.5059C74.6898 26.5997 74.8181 26.7069 74.9061 26.8275C74.9961 26.9461 75.066 27.0438 75.1157 27.1203H75.1731V24.9498H75.8507V30.8298H75.1961V30.1522H75.1157C75.066 30.2326 74.9951 30.3341 74.9033 30.4566C74.8114 30.5772 74.6803 30.6853 74.5099 30.781C74.3396 30.8748 74.1127 30.9217 73.8295 30.9217ZM73.9213 30.313C74.1931 30.313 74.4228 30.2422 74.6104 30.1006C74.798 29.957 74.9406 29.7589 75.0382 29.5062C75.1358 29.2517 75.1846 28.9579 75.1846 28.6248C75.1846 28.2956 75.1368 28.0075 75.0411 27.7606C74.9454 27.5118 74.8037 27.3184 74.6161 27.1806C74.4286 27.0409 74.197 26.971 73.9213 26.971C73.6342 26.971 73.395 27.0447 73.2036 27.1921C73.0141 27.3376 72.8715 27.5357 72.7758 27.7864C72.682 28.0353 72.6351 28.3147 72.6351 28.6248C72.6351 28.9387 72.6829 29.2239 72.7786 29.4804C72.8762 29.735 73.0198 29.9379 73.2093 30.0891C73.4007 30.2384 73.6381 30.313 73.9213 30.313ZM78.4836 30.9332C78.2041 30.9332 77.9505 30.8806 77.7227 30.7753C77.4949 30.6681 77.3141 30.514 77.1801 30.313C77.0461 30.1101 76.9791 29.8651 76.9791 29.578C76.9791 29.3254 77.0289 29.1206 77.1284 28.9636C77.2279 28.8047 77.361 28.6803 77.5275 28.5904C77.694 28.5004 77.8778 28.4334 78.0787 28.3894C78.2816 28.3434 78.4855 28.3071 78.6903 28.2803C78.9583 28.2458 79.1755 28.22 79.342 28.2027C79.5105 28.1836 79.633 28.152 79.7095 28.108C79.788 28.064 79.8273 27.9874 79.8273 27.8783V27.8553C79.8273 27.5721 79.7497 27.3519 79.5947 27.195C79.4416 27.038 79.209 26.9595 78.897 26.9595C78.5735 26.9595 78.3199 27.0304 78.1362 27.172C77.9524 27.3137 77.8232 27.4649 77.7486 27.6257L77.1054 27.396C77.2203 27.128 77.3734 26.9194 77.5648 26.7701C77.7581 26.6188 77.9687 26.5136 78.1964 26.4542C78.4261 26.393 78.652 26.3624 78.874 26.3624C79.0157 26.3624 79.1784 26.3796 79.3621 26.414C79.5478 26.4466 79.7268 26.5145 79.899 26.6179C80.0732 26.7212 80.2177 26.8772 80.3326 27.0859C80.4474 27.2945 80.5048 27.574 80.5048 27.9242V30.8298H79.8273V30.2326H79.7928C79.7469 30.3283 79.6703 30.4307 79.5631 30.5398C79.4559 30.649 79.3133 30.7418 79.1353 30.8183C78.9573 30.8949 78.7401 30.9332 78.4836 30.9332ZM78.5869 30.3245C78.8549 30.3245 79.0808 30.2719 79.2645 30.1666C79.4502 30.0613 79.5899 29.9254 79.6837 29.7589C79.7794 29.5924 79.8273 29.4172 79.8273 29.2335V28.6133C79.7985 28.6478 79.7354 28.6794 79.6378 28.7081C79.5421 28.7349 79.431 28.7588 79.3047 28.7798C79.1803 28.799 79.0587 28.8162 78.9401 28.8315C78.8233 28.8449 78.7286 28.8564 78.6558 28.866C78.4797 28.8889 78.3151 28.9263 78.162 28.978C78.0108 29.0277 77.8883 29.1033 77.7945 29.2048C77.7026 29.3043 77.6567 29.4402 77.6567 29.6125C77.6567 29.8479 77.7438 30.0259 77.918 30.1465C78.094 30.2652 78.317 30.3245 78.5869 30.3245ZM85.6808 30.9217C85.3133 30.9217 84.9888 30.8289 84.7075 30.6432C84.4261 30.4556 84.206 30.1915 84.0471 29.8508C83.8882 29.5082 83.8088 29.1033 83.8088 28.6363C83.8088 28.1731 83.8882 27.7711 84.0471 27.4304C84.206 27.0897 84.427 26.8265 84.7103 26.6409C84.9936 26.4552 85.3209 26.3624 85.6923 26.3624C85.9794 26.3624 86.2062 26.4102 86.3727 26.5059C86.5412 26.5997 86.6694 26.7069 86.7574 26.8275C86.8474 26.9461 86.9173 27.0438 86.967 27.1203H87.0245V24.9498H87.702V30.8298H87.0474V30.1522H86.967C86.9173 30.2326 86.8465 30.3341 86.7546 30.4566C86.6627 30.5772 86.5316 30.6853 86.3612 30.781C86.1909 30.8748 85.9641 30.9217 85.6808 30.9217ZM85.7726 30.313C86.0444 30.313 86.2741 30.2422 86.4617 30.1006C86.6493 29.957 86.7919 29.7589 86.8895 29.5062C86.9871 29.2517 87.0359 28.9579 87.0359 28.6248C87.0359 28.2956 86.9881 28.0075 86.8924 27.7606C86.7967 27.5118 86.655 27.3184 86.4675 27.1806C86.2799 27.0409 86.0483 26.971 85.7726 26.971C85.4855 26.971 85.2463 27.0447 85.0549 27.1921C84.8654 27.3376 84.7228 27.5357 84.6271 27.7864C84.5333 28.0353 84.4864 28.3147 84.4864 28.6248C84.4864 28.9387 84.5342 29.2239 84.6299 29.4804C84.7276 29.735 84.8711 29.9379 85.0606 30.0891C85.252 30.2384 85.4894 30.313 85.7726 30.313ZM90.8861 30.9217C90.4612 30.9217 90.0947 30.8279 89.7865 30.6403C89.4802 30.4508 89.2438 30.1867 89.0773 29.8479C88.9127 29.5072 88.8304 29.111 88.8304 28.6593C88.8304 28.2075 88.9127 27.8094 89.0773 27.4649C89.2438 27.1184 89.4755 26.8485 89.7721 26.6552C90.0707 26.46 90.4191 26.3624 90.8172 26.3624C91.0469 26.3624 91.2737 26.4006 91.4977 26.4772C91.7216 26.5538 91.9255 26.6782 92.1092 26.8504C92.293 27.0208 92.4394 27.2467 92.5485 27.528C92.6576 27.8094 92.7122 28.1559 92.7122 28.5674V28.8545H89.3128V28.2688H92.0231C92.0231 28.02 91.9733 27.7979 91.8738 27.6027C91.7762 27.4074 91.6365 27.2534 91.4546 27.1404C91.2747 27.0275 91.0622 26.971 90.8172 26.971C90.5473 26.971 90.3138 27.038 90.1167 27.172C89.9214 27.3041 89.7712 27.4764 89.6659 27.6888C89.5606 27.9013 89.508 28.1291 89.508 28.3721V28.7626C89.508 29.0957 89.5654 29.378 89.6803 29.6096C89.797 29.8393 89.9588 30.0144 90.1655 30.135C90.3722 30.2537 90.6124 30.313 90.8861 30.313C91.0641 30.313 91.2249 30.2881 91.3685 30.2384C91.514 30.1867 91.6393 30.1101 91.7446 30.0087C91.8499 29.9053 91.9312 29.7771 91.9886 29.624L92.6433 29.8077C92.5744 30.0297 92.4586 30.225 92.2959 30.3934C92.1332 30.5599 91.9322 30.6901 91.6929 30.7839C91.4537 30.8758 91.1847 30.9217 90.8861 30.9217ZM97.9348 26.4198V26.994H95.6493V26.4198H97.9348ZM96.3154 25.3632H96.993V29.5665C96.993 29.7579 97.0208 29.9015 97.0763 29.9972C97.1337 30.091 97.2065 30.1542 97.2945 30.1867C97.3845 30.2173 97.4792 30.2326 97.5787 30.2326C97.6534 30.2326 97.7146 30.2288 97.7625 30.2212C97.8103 30.2116 97.8486 30.2039 97.8773 30.1982L98.0152 30.8069C97.9692 30.8241 97.9051 30.8413 97.8228 30.8585C97.7405 30.8777 97.6362 30.8873 97.5098 30.8873C97.3184 30.8873 97.1308 30.8461 96.9471 30.7638C96.7653 30.6815 96.614 30.5561 96.4935 30.3877C96.3748 30.2192 96.3154 30.0068 96.3154 29.7503V25.3632ZM100.252 30.9332C99.9723 30.9332 99.7187 30.8806 99.4909 30.7753C99.2631 30.6681 99.0823 30.514 98.9483 30.313C98.8143 30.1101 98.7473 29.8651 98.7473 29.578C98.7473 29.3254 98.7971 29.1206 98.8966 28.9636C98.9961 28.8047 99.1292 28.6803 99.2957 28.5904C99.4622 28.5004 99.646 28.4334 99.8469 28.3894C100.05 28.3434 100.254 28.3071 100.458 28.2803C100.726 28.2458 100.944 28.22 101.11 28.2027C101.279 28.1836 101.401 28.152 101.478 28.108C101.556 28.064 101.595 27.9874 101.595 27.8783V27.8553C101.595 27.5721 101.518 27.3519 101.363 27.195C101.21 27.038 100.977 26.9595 100.665 26.9595C100.342 26.9595 100.088 27.0304 99.9044 27.172C99.7206 27.3137 99.5914 27.4649 99.5168 27.6257L98.8736 27.396C98.9885 27.128 99.1416 26.9194 99.333 26.7701C99.5263 26.6188 99.7369 26.5136 99.9647 26.4542C100.194 26.393 100.42 26.3624 100.642 26.3624C100.784 26.3624 100.947 26.3796 101.13 26.414C101.316 26.4466 101.495 26.5145 101.667 26.6179C101.841 26.7212 101.986 26.8772 102.101 27.0859C102.216 27.2945 102.273 27.574 102.273 27.9242V30.8298H101.595V30.2326H101.561C101.515 30.3283 101.439 30.4307 101.331 30.5398C101.224 30.649 101.082 30.7418 100.904 30.8183C100.726 30.8949 100.508 30.9332 100.252 30.9332ZM100.355 30.3245C100.623 30.3245 100.849 30.2719 101.033 30.1666C101.218 30.0613 101.358 29.9254 101.452 29.7589C101.548 29.5924 101.595 29.4172 101.595 29.2335V28.6133C101.567 28.6478 101.504 28.6794 101.406 28.7081C101.31 28.7349 101.199 28.7588 101.073 28.7798C100.948 28.799 100.827 28.8162 100.708 28.8315C100.592 28.8449 100.497 28.8564 100.424 28.866C100.248 28.8889 100.083 28.9263 99.9302 28.978C99.779 29.0277 99.6565 29.1033 99.5627 29.2048C99.4708 29.3043 99.4249 29.4402 99.4249 29.6125C99.4249 29.8479 99.512 30.0259 99.6862 30.1465C99.8623 30.2652 100.085 30.3245 100.355 30.3245ZM104.187 24.9498V30.8298H103.51V24.9498H104.187ZM107.277 30.9217C106.852 30.9217 106.486 30.8279 106.178 30.6403C105.872 30.4508 105.635 30.1867 105.469 29.8479C105.304 29.5072 105.222 29.111 105.222 28.6593C105.222 28.2075 105.304 27.8094 105.469 27.4649C105.635 27.1184 105.867 26.8485 106.163 26.6552C106.462 26.46 106.81 26.3624 107.209 26.3624C107.438 26.3624 107.665 26.4006 107.889 26.4772C108.113 26.5538 108.317 26.6782 108.501 26.8504C108.684 27.0208 108.831 27.2467 108.94 27.528C109.049 27.8094 109.103 28.1559 109.103 28.5674V28.8545H105.704V28.2688H108.414C108.414 28.02 108.365 27.7979 108.265 27.6027C108.167 27.4074 108.028 27.2534 107.846 27.1404C107.666 27.0275 107.454 26.971 107.209 26.971C106.939 26.971 106.705 27.038 106.508 27.172C106.313 27.3041 106.162 27.4764 106.057 27.6888C105.952 27.9013 105.899 28.1291 105.899 28.3721V28.7626C105.899 29.0957 105.957 29.378 106.072 29.6096C106.188 29.8393 106.35 30.0144 106.557 30.135C106.763 30.2537 107.004 30.313 107.277 30.313C107.455 30.313 107.616 30.2881 107.76 30.2384C107.905 30.1867 108.031 30.1101 108.136 30.0087C108.241 29.9053 108.323 29.7771 108.38 29.624L109.035 29.8077C108.966 30.0297 108.85 30.225 108.687 30.3934C108.524 30.5599 108.323 30.6901 108.084 30.7839C107.845 30.8758 107.576 30.9217 107.277 30.9217ZM110.812 28.1769V30.8298H110.134V26.4198H110.789V27.1088H110.846C110.95 26.8849 111.107 26.705 111.317 26.5691C111.528 26.4313 111.799 26.3624 112.133 26.3624C112.431 26.3624 112.692 26.4236 112.916 26.5461C113.14 26.6667 113.314 26.8504 113.439 27.0974C113.563 27.3424 113.625 27.6524 113.625 28.0276V30.8298H112.948V28.0735C112.948 27.7271 112.858 27.4572 112.678 27.2639C112.498 27.0687 112.251 26.971 111.937 26.971C111.721 26.971 111.528 27.0179 111.357 27.1117C111.189 27.2055 111.056 27.3424 110.958 27.5223C110.861 27.7022 110.812 27.9204 110.812 28.1769ZM116.782 26.4198V26.994H114.496V26.4198H116.782ZM115.162 25.3632H115.84V29.5665C115.84 29.7579 115.868 29.9015 115.923 29.9972C115.981 30.091 116.053 30.1542 116.141 30.1867C116.231 30.2173 116.326 30.2326 116.426 30.2326C116.5 30.2326 116.561 30.2288 116.609 30.2212C116.657 30.2116 116.695 30.2039 116.724 30.1982L116.862 30.8069C116.816 30.8241 116.752 30.8413 116.67 30.8585C116.587 30.8777 116.483 30.8873 116.357 30.8873C116.165 30.8873 115.978 30.8461 115.794 30.7638C115.612 30.6815 115.461 30.5561 115.34 30.3877C115.222 30.2192 115.162 30.0068 115.162 29.7503V25.3632ZM119.545 30.9217C119.147 30.9217 118.798 30.827 118.497 30.6375C118.198 30.448 117.965 30.1829 117.797 29.8422C117.63 29.5015 117.547 29.1033 117.547 28.6478C117.547 28.1884 117.63 27.7874 117.797 27.4448C117.965 27.1021 118.198 26.8361 118.497 26.6466C118.798 26.4571 119.147 26.3624 119.545 26.3624C119.943 26.3624 120.292 26.4571 120.59 26.6466C120.891 26.8361 121.124 27.1021 121.291 27.4448C121.459 27.7874 121.543 28.1884 121.543 28.6478C121.543 29.1033 121.459 29.5015 121.291 29.8422C121.124 30.1829 120.891 30.448 120.59 30.6375C120.292 30.827 119.943 30.9217 119.545 30.9217ZM119.545 30.313C119.847 30.313 120.096 30.2355 120.292 30.0805C120.487 29.9254 120.631 29.7216 120.725 29.4689C120.819 29.2163 120.866 28.9425 120.866 28.6478C120.866 28.353 120.819 28.0783 120.725 27.8238C120.631 27.5692 120.487 27.3634 120.292 27.2065C120.096 27.0495 119.847 26.971 119.545 26.971C119.243 26.971 118.994 27.0495 118.799 27.2065C118.603 27.3634 118.459 27.5692 118.365 27.8238C118.271 28.0783 118.224 28.353 118.224 28.6478C118.224 28.9425 118.271 29.2163 118.365 29.4689C118.459 29.7216 118.603 29.9254 118.799 30.0805C118.994 30.2355 119.243 30.313 119.545 30.313Z" fill="#B5B5B5"/>
</svg>
