<svg width="24" height="25" viewBox="0 0 24 25" fill="none" xmlns="http://www.w3.org/2000/svg">
<g clip-path="url(#clip0_5_8903)">
<path fill-rule="evenodd" clip-rule="evenodd" d="M12 0.471436C5.3724 0.471436 0 5.85224 0 12.4918C0 17.8018 3.438 22.3078 8.2068 23.8966C8.8068 24.007 9.0252 23.6362 9.0252 23.317C9.0252 23.0326 9.0156 22.2754 9.0096 21.2734C5.6712 21.9994 4.9668 19.6618 4.9668 19.6618C4.422 18.2722 3.6348 17.9026 3.6348 17.9026C2.5452 17.1586 3.7176 17.173 3.7176 17.173C4.9212 17.257 5.5548 18.4114 5.5548 18.4114C6.6252 20.2474 8.364 19.717 9.0468 19.4098C9.1572 18.6334 9.4668 18.1042 9.81 17.8042C7.146 17.5006 4.344 16.4686 4.344 11.863C4.344 10.5514 4.812 9.47744 5.5788 8.63743C5.4552 8.33384 5.0436 7.11104 5.6964 5.45744C5.6964 5.45744 6.7044 5.13344 8.9964 6.68864C9.97532 6.42165 10.9853 6.28567 12 6.28424C13.02 6.28903 14.046 6.42224 15.0048 6.68864C17.2956 5.13344 18.3012 5.45623 18.3012 5.45623C18.9564 7.11103 18.5436 8.33384 18.4212 8.63743C19.1892 9.47744 19.6548 10.5514 19.6548 11.863C19.6548 16.4806 16.848 17.497 14.1756 17.7946C14.6064 18.1654 14.9892 18.8986 14.9892 20.0206C14.9892 21.6262 14.9748 22.9234 14.9748 23.317C14.9748 23.6386 15.1908 24.013 15.8004 23.8954C18.19 23.094 20.2672 21.5618 21.7386 19.5155C23.2099 17.4692 24.001 15.0122 24 12.4918C24 5.85224 18.6264 0.471436 12 0.471436Z" fill="#98A2B3"/>
</g>
<defs>
<clipPath id="clip0_5_8903">
<rect width="24" height="24" fill="white" transform="translate(0 0.471436)"/>
</clipPath>
</defs>
</svg>
