<svg width="428" height="257" viewBox="0 0 428 257" fill="none" xmlns="http://www.w3.org/2000/svg">
<path d="M427.404 257H0.566657C0.41622 257 0.272096 256.942 0.165874 256.84C0.0596528 256.738 0 256.6 0 256.456C0 256.311 0.0596528 256.173 0.165874 256.071C0.272096 255.969 0.41622 255.911 0.566657 255.911H427.404C427.554 255.911 427.698 255.969 427.804 256.071C427.911 256.173 427.97 256.311 427.97 256.456C427.97 256.6 427.911 256.738 427.804 256.84C427.698 256.942 427.554 257 427.404 257Z" fill="#3F3D56"/>
<path d="M131.81 31.9187C133.794 31.9187 135.403 30.31 135.403 28.3255C135.403 26.3411 133.794 24.7324 131.81 24.7324C129.825 24.7324 128.217 26.3411 128.217 28.3255C128.217 30.31 129.825 31.9187 131.81 31.9187Z" fill="#F2F2F2"/>
<path d="M117.49 31.9187C119.474 31.9187 121.083 30.31 121.083 28.3255C121.083 26.3411 119.474 24.7324 117.49 24.7324C115.505 24.7324 113.897 26.3411 113.897 28.3255C113.897 30.31 115.505 31.9187 117.49 31.9187Z" fill="#F2F2F2"/>
<path d="M103.17 31.9187C105.154 31.9187 106.763 30.31 106.763 28.3255C106.763 26.3411 105.154 24.7324 103.17 24.7324C101.185 24.7324 99.5765 26.3411 99.5765 28.3255C99.5765 30.31 101.185 31.9187 103.17 31.9187Z" fill="#F2F2F2"/>
<path d="M88.8495 31.9187C90.834 31.9187 92.4426 30.31 92.4426 28.3255C92.4426 26.3411 90.834 24.7324 88.8495 24.7324C86.8651 24.7324 85.2564 26.3411 85.2564 28.3255C85.2564 30.31 86.8651 31.9187 88.8495 31.9187Z" fill="#F2F2F2"/>
<path d="M131.81 46.9204C133.794 46.9204 135.403 45.3117 135.403 43.3273C135.403 41.3428 133.794 39.7341 131.81 39.7341C129.825 39.7341 128.217 41.3428 128.217 43.3273C128.217 45.3117 129.825 46.9204 131.81 46.9204Z" fill="#F2F2F2"/>
<path d="M117.49 46.9204C119.474 46.9204 121.083 45.3117 121.083 43.3273C121.083 41.3428 119.474 39.7341 117.49 39.7341C115.505 39.7341 113.897 41.3428 113.897 43.3273C113.897 45.3117 115.505 46.9204 117.49 46.9204Z" fill="#F2F2F2"/>
<path d="M103.17 46.9204C105.154 46.9204 106.763 45.3117 106.763 43.3273C106.763 41.3428 105.154 39.7341 103.17 39.7341C101.185 39.7341 99.5765 41.3428 99.5765 43.3273C99.5765 45.3117 101.185 46.9204 103.17 46.9204Z" fill="#F2F2F2"/>
<path d="M88.8495 46.9204C90.834 46.9204 92.4426 45.3117 92.4426 43.3273C92.4426 41.3428 90.834 39.7341 88.8495 39.7341C86.8651 39.7341 85.2564 41.3428 85.2564 43.3273C85.2564 45.3117 86.8651 46.9204 88.8495 46.9204Z" fill="#F2F2F2"/>
<path d="M131.81 61.9221C133.794 61.9221 135.403 60.3134 135.403 58.329C135.403 56.3445 133.794 54.7358 131.81 54.7358C129.825 54.7358 128.217 56.3445 128.217 58.329C128.217 60.3134 129.825 61.9221 131.81 61.9221Z" fill="#F2F2F2"/>
<path d="M117.49 61.9221C119.474 61.9221 121.083 60.3134 121.083 58.329C121.083 56.3445 119.474 54.7358 117.49 54.7358C115.505 54.7358 113.897 56.3445 113.897 58.329C113.897 60.3134 115.505 61.9221 117.49 61.9221Z" fill="#F2F2F2"/>
<path d="M103.17 61.9221C105.154 61.9221 106.763 60.3134 106.763 58.329C106.763 56.3445 105.154 54.7358 103.17 54.7358C101.185 54.7358 99.5765 56.3445 99.5765 58.329C99.5765 60.3134 101.185 61.9221 103.17 61.9221Z" fill="#F2F2F2"/>
<path d="M88.8495 61.9221C90.834 61.9221 92.4426 60.3134 92.4426 58.329C92.4426 56.3445 90.834 54.7358 88.8495 54.7358C86.8651 54.7358 85.2564 56.3445 85.2564 58.329C85.2564 60.3134 86.8651 61.9221 88.8495 61.9221Z" fill="#F2F2F2"/>
<path d="M131.81 76.9238C133.794 76.9238 135.403 75.3151 135.403 73.3307C135.403 71.3462 133.794 69.7375 131.81 69.7375C129.825 69.7375 128.217 71.3462 128.217 73.3307C128.217 75.3151 129.825 76.9238 131.81 76.9238Z" fill="#F2F2F2"/>
<path d="M117.49 76.9238C119.474 76.9238 121.083 75.3151 121.083 73.3307C121.083 71.3462 119.474 69.7375 117.49 69.7375C115.505 69.7375 113.897 71.3462 113.897 73.3307C113.897 75.3151 115.505 76.9238 117.49 76.9238Z" fill="#F2F2F2"/>
<path d="M103.17 76.9238C105.154 76.9238 106.763 75.3151 106.763 73.3307C106.763 71.3462 105.154 69.7375 103.17 69.7375C101.185 69.7375 99.5765 71.3462 99.5765 73.3307C99.5765 75.3151 101.185 76.9238 103.17 76.9238Z" fill="#F2F2F2"/>
<path d="M88.8495 76.9238C90.834 76.9238 92.4426 75.3151 92.4426 73.3307C92.4426 71.3462 90.834 69.7375 88.8495 69.7375C86.8651 69.7375 85.2564 71.3462 85.2564 73.3307C85.2564 75.3151 86.8651 76.9238 88.8495 76.9238Z" fill="#F2F2F2"/>
<path d="M131.81 91.9255C133.794 91.9255 135.403 90.3168 135.403 88.3324C135.403 86.348 133.794 84.7393 131.81 84.7393C129.825 84.7393 128.217 86.348 128.217 88.3324C128.217 90.3168 129.825 91.9255 131.81 91.9255Z" fill="#F2F2F2"/>
<path d="M117.49 91.9255C119.474 91.9255 121.083 90.3168 121.083 88.3324C121.083 86.348 119.474 84.7393 117.49 84.7393C115.505 84.7393 113.897 86.348 113.897 88.3324C113.897 90.3168 115.505 91.9255 117.49 91.9255Z" fill="#F2F2F2"/>
<path d="M103.17 91.9255C105.154 91.9255 106.763 90.3168 106.763 88.3324C106.763 86.348 105.154 84.7393 103.17 84.7393C101.185 84.7393 99.5765 86.348 99.5765 88.3324C99.5765 90.3168 101.185 91.9255 103.17 91.9255Z" fill="#F2F2F2"/>
<path d="M88.8495 91.9255C90.834 91.9255 92.4426 90.3168 92.4426 88.3324C92.4426 86.348 90.834 84.7393 88.8495 84.7393C86.8651 84.7393 85.2564 86.348 85.2564 88.3324C85.2564 90.3168 86.8651 91.9255 88.8495 91.9255Z" fill="#F2F2F2"/>
<path d="M131.81 106.927C133.794 106.927 135.403 105.318 135.403 103.334C135.403 101.35 133.794 99.7409 131.81 99.7409C129.825 99.7409 128.217 101.35 128.217 103.334C128.217 105.318 129.825 106.927 131.81 106.927Z" fill="#F2F2F2"/>
<path d="M117.49 106.927C119.474 106.927 121.083 105.318 121.083 103.334C121.083 101.35 119.474 99.7409 117.49 99.7409C115.505 99.7409 113.897 101.35 113.897 103.334C113.897 105.318 115.505 106.927 117.49 106.927Z" fill="#F2F2F2"/>
<path d="M103.17 106.927C105.154 106.927 106.763 105.318 106.763 103.334C106.763 101.35 105.154 99.7409 103.17 99.7409C101.185 99.7409 99.5765 101.35 99.5765 103.334C99.5765 105.318 101.185 106.927 103.17 106.927Z" fill="#F2F2F2"/>
<path d="M88.8495 106.927C90.834 106.927 92.4426 105.318 92.4426 103.334C92.4426 101.35 90.834 99.7409 88.8495 99.7409C86.8651 99.7409 85.2564 101.35 85.2564 103.334C85.2564 105.318 86.8651 106.927 88.8495 106.927Z" fill="#F2F2F2"/>
<path d="M100.237 201.356V202.467C100.238 204.309 100.971 206.074 102.273 207.377C103.575 208.679 105.341 209.411 107.182 209.413H157.188C159.029 209.412 160.796 208.68 162.098 207.378C163.4 206.075 164.132 204.309 164.133 202.467V201.356C164.136 199.731 163.566 198.157 162.521 196.911C162.174 196.498 161.781 196.125 161.349 195.8C161.349 195.8 133.857 195.178 133.857 194.411H107.182C105.341 194.413 103.576 195.146 102.274 196.448C100.972 197.75 100.239 199.515 100.237 201.356Z" fill="#CCCCCC"/>
<path d="M136.198 209.137H128.975V255.809H136.198V209.137Z" fill="#CCCCCC"/>
<path d="M156.756 255.555C156.756 256.335 145.811 255.857 132.309 255.857C118.807 255.857 107.862 256.335 107.862 255.555C107.862 254.774 118.807 248.586 132.309 248.586C145.811 248.586 156.756 254.774 156.756 255.555Z" fill="#CCCCCC"/>
<path d="M146.826 200.413C147.347 199.714 147.709 198.908 147.885 198.054C148.062 197.199 148.049 196.316 147.847 195.467C147.645 194.618 147.26 193.824 146.718 193.14C146.176 192.456 145.491 191.899 144.71 191.509L129.402 139.344L117.744 145.054L136.458 194.534C135.889 195.889 135.836 197.405 136.311 198.796C136.785 200.186 137.752 201.354 139.03 202.079C140.308 202.804 141.808 203.034 143.245 202.727C144.681 202.421 145.955 201.597 146.826 200.413Z" fill="#A0616A"/>
<path d="M132.87 148.056L119.822 151.588C119.451 151.688 119.063 151.708 118.683 151.644C118.304 151.581 117.943 151.437 117.624 151.222C117.305 151.006 117.037 150.725 116.837 150.396C116.637 150.068 116.51 149.7 116.465 149.318L114.888 135.934C114.385 134.032 114.656 132.008 115.643 130.306C116.63 128.603 118.252 127.362 120.152 126.853C122.053 126.345 124.078 126.61 125.783 127.593C127.488 128.575 128.734 130.193 129.248 132.092L134.623 144.402C134.777 144.755 134.853 145.136 134.846 145.521C134.839 145.905 134.75 146.284 134.583 146.631C134.417 146.977 134.178 147.284 133.882 147.53C133.586 147.776 133.241 147.955 132.87 148.056Z" fill="#0B85C3"/>
<path d="M150.236 250.084L157.048 250.084L160.289 232.417H150.235L150.236 250.084Z" fill="#A0616A"/>
<path d="M148.498 247.86L161.913 247.86H161.913C163.036 247.86 164.148 248.081 165.185 248.511C166.222 248.94 167.165 249.57 167.958 250.364C168.752 251.158 169.382 252.1 169.812 253.137C170.241 254.174 170.462 255.286 170.462 256.409V256.687L148.499 256.687L148.498 247.86Z" fill="#2F2E41"/>
<path d="M158.142 240.611C158.063 240.611 157.983 240.607 157.903 240.599L148.476 239.913C148.095 239.878 147.727 239.755 147.401 239.555C147.074 239.355 146.798 239.083 146.594 238.759C146.389 238.435 146.262 238.069 146.221 237.688C146.181 237.307 146.228 236.922 146.36 236.563L158.976 208.218C159.066 207.966 159.103 207.697 159.084 207.429C159.066 207.162 158.992 206.901 158.867 206.663C158.743 206.423 158.569 206.211 158.357 206.043C158.146 205.874 157.901 205.753 157.638 205.685C151.706 204.135 136.485 200.006 123.309 195.174C117.664 193.104 114.108 190.113 112.742 186.283C110.94 181.234 113.605 176.63 113.72 176.437L113.809 176.285L126.208 177.412L139.649 178.556L169.104 194.351C171.572 195.685 173.447 197.901 174.355 200.556C175.263 203.211 175.137 206.11 174.004 208.677L160.424 239.129C160.227 239.57 159.907 239.945 159.502 240.208C159.098 240.471 158.625 240.611 158.142 240.611Z" fill="#2F2E41"/>
<path d="M128.363 121.334C135.9 121.334 142.01 115.224 142.01 107.688C142.01 100.151 135.9 94.0411 128.363 94.0411C120.827 94.0411 114.717 100.151 114.717 107.688C114.717 115.224 120.827 121.334 128.363 121.334Z" fill="#A0616A"/>
<path d="M146.346 249.529L153.158 249.528L156.399 231.862H146.345L146.346 249.529Z" fill="#A0616A"/>
<path d="M144.609 247.305L158.023 247.304H158.024C159.147 247.304 160.258 247.525 161.296 247.955C162.333 248.384 163.275 249.014 164.069 249.808C164.863 250.602 165.493 251.544 165.922 252.581C166.352 253.619 166.573 254.73 166.573 255.853V256.131L144.609 256.132L144.609 247.305Z" fill="#2F2E41"/>
<path d="M154.253 242.278C154.174 242.278 154.094 242.274 154.014 242.266L144.587 241.58C144.206 241.544 143.838 241.422 143.511 241.222C143.185 241.022 142.909 240.749 142.704 240.426C142.5 240.102 142.372 239.736 142.332 239.355C142.291 238.974 142.339 238.589 142.471 238.23L155.087 209.885C155.177 209.632 155.214 209.364 155.195 209.096C155.176 208.829 155.102 208.568 154.978 208.33C154.853 208.09 154.68 207.878 154.468 207.71C154.256 207.541 154.011 207.419 153.749 207.352C147.817 205.802 132.596 201.672 119.419 196.841C113.774 194.771 110.219 191.78 108.852 187.95C107.05 182.901 109.716 178.297 109.83 178.104L109.92 177.952L122.318 179.079L135.759 180.222L165.215 196.017C167.683 197.352 169.557 199.568 170.465 202.223C171.374 204.877 171.248 207.777 170.114 210.344L156.535 240.796C156.338 241.237 156.018 241.611 155.613 241.874C155.208 242.137 154.736 242.277 154.253 242.278Z" fill="#2F2E41"/>
<path d="M132.572 129.072L118.126 124.072C118.126 124.072 109.057 131.039 113.414 148.324C115.688 157.243 115.026 166.658 111.525 175.171C111.103 176.225 110.617 177.251 110.07 178.245C110.07 178.245 126.183 197.691 141.184 183.245L135.35 155.187C135.35 155.187 144.518 136.573 132.572 129.072Z" fill="#2F2E41"/>
<path d="M130.058 121.798C128.116 118.891 126.583 114.86 128.721 112.094C130.832 109.364 134.995 109.766 138.228 108.558C142.731 106.875 145.342 101.585 144.528 96.8476C143.713 92.1102 139.91 88.183 135.38 86.5762C130.85 84.9693 125.741 85.4919 121.305 87.3423C115.843 89.6202 111.158 94.0265 109.194 99.6083C107.229 105.19 108.279 111.892 112.355 116.182C116.724 120.782 123.581 122.008 129.925 121.933" fill="#2F2E41"/>
<path d="M117.364 96.9997C114.916 98.9921 111.182 98.1071 108.555 96.3586C105.928 94.61 103.796 92.1202 100.954 90.7492C95.9424 88.3323 89.8836 89.939 85.0064 92.6162C80.1292 95.2933 75.8059 98.9919 70.6541 101.093C65.5024 103.194 58.9284 103.298 55.0274 99.3306C54.0675 102.112 53.989 105.122 54.8027 107.949C55.6165 110.777 57.2828 113.284 59.5743 115.13C61.8659 116.976 64.671 118.069 67.607 118.262C70.5431 118.454 73.467 117.736 75.9799 116.206C81.6246 112.767 84.7425 105.558 91.0738 103.66C94.5772 102.61 98.3392 103.456 101.88 104.372C105.421 105.288 109.113 106.278 112.686 105.498C116.26 104.718 119.602 101.507 119.148 97.8777L117.364 96.9997Z" fill="#2F2E41"/>
<path d="M161.787 225.585C160.342 216.199 160.342 206.648 161.787 197.262C161.879 196.703 162.166 196.195 162.597 195.829C163.028 195.462 163.575 195.26 164.142 195.259H186.295C186.654 195.257 187.009 195.338 187.332 195.495C187.655 195.651 187.938 195.88 188.16 196.162C188.386 196.448 188.544 196.783 188.622 197.139C188.7 197.496 188.695 197.866 188.608 198.22C186.536 206.9 186.536 215.946 188.608 224.626C188.695 224.981 188.7 225.351 188.622 225.707C188.544 226.064 188.386 226.398 188.16 226.685C187.938 226.967 187.655 227.195 187.332 227.352C187.009 227.509 186.654 227.589 186.295 227.588H164.142C163.575 227.587 163.028 227.385 162.597 227.018C162.166 226.651 161.879 226.143 161.787 225.585Z" fill="#0B85C3"/>
<path d="M179.478 208.969H167.852C167.41 208.969 166.987 208.793 166.674 208.48C166.362 208.168 166.186 207.744 166.186 207.302V206.651C166.186 206.209 166.362 205.786 166.674 205.473C166.987 205.161 167.41 204.985 167.852 204.984H179.478C179.92 204.985 180.344 205.161 180.656 205.473C180.969 205.786 181.144 206.209 181.145 206.651V207.302C181.144 207.744 180.969 208.168 180.656 208.48C180.344 208.793 179.92 208.969 179.478 208.969Z" fill="white"/>
<path d="M179.478 215.828H167.852C167.41 215.828 166.987 215.652 166.674 215.339C166.362 215.027 166.186 214.603 166.186 214.161V213.51C166.186 213.068 166.362 212.644 166.674 212.332C166.987 212.019 167.41 211.844 167.852 211.843H179.478C179.92 211.844 180.344 212.019 180.656 212.332C180.969 212.644 181.144 213.068 181.145 213.51V214.161C181.144 214.603 180.969 215.027 180.656 215.339C180.344 215.652 179.92 215.828 179.478 215.828Z" fill="white"/>
<path d="M167.613 197.914C167.943 197.106 168.092 196.235 168.049 195.364C168.007 194.492 167.774 193.641 167.366 192.869C166.959 192.097 166.387 191.424 165.692 190.898C164.996 190.371 164.193 190.003 163.34 189.82L135.484 143.134L125.623 151.575L156.105 194.811C155.893 196.265 156.221 197.746 157.027 198.974C157.834 200.202 159.063 201.091 160.481 201.474C161.9 201.856 163.409 201.705 164.724 201.049C166.038 200.393 167.066 199.277 167.613 197.914Z" fill="#A0616A"/>
<path d="M141.019 150.703L129.267 157.383C128.933 157.573 128.562 157.689 128.179 157.722C127.795 157.756 127.41 157.706 127.047 157.577C126.685 157.448 126.355 157.243 126.079 156.975C125.803 156.707 125.589 156.382 125.45 156.024L120.579 143.459C119.616 141.742 119.374 139.715 119.904 137.82C120.434 135.925 121.694 134.318 123.408 133.35C125.121 132.383 127.148 132.135 129.044 132.659C130.941 133.184 132.552 134.44 133.524 136.15L141.804 146.727C142.041 147.03 142.21 147.381 142.299 147.755C142.389 148.129 142.396 148.518 142.322 148.895C142.247 149.272 142.092 149.629 141.867 149.941C141.642 150.253 141.353 150.513 141.019 150.703Z" fill="#2F2E41"/>
<path d="M266.055 167.102H40.474C39.5161 167.102 38.5975 167.482 37.9203 168.16C37.243 168.837 36.8625 169.756 36.8625 170.713C36.8625 171.671 37.243 172.59 37.9203 173.267C38.5975 173.944 39.5161 174.325 40.474 174.325H46.8636V252.945C46.8636 253.903 47.2441 254.821 47.9214 255.499C48.5987 256.176 49.5173 256.557 50.4751 256.557C51.433 256.557 52.3516 256.176 53.0289 255.499C53.7062 254.821 54.0866 253.903 54.0866 252.945V181.265L94.5752 254.65C95.0551 255.477 95.8437 256.08 96.768 256.327C97.6922 256.574 98.6765 256.443 99.505 255.965C100.333 255.487 100.938 254.7 101.187 253.776C101.435 252.852 101.307 251.867 100.83 251.038L58.5058 174.325H251.887V174.372L209.588 251.038C209.109 251.868 208.979 252.853 209.227 253.778C209.475 254.704 210.08 255.492 210.91 255.971C211.739 256.45 212.725 256.58 213.65 256.332C214.575 256.084 215.364 255.479 215.843 254.65L251.887 189.321V252.945C251.887 253.903 252.267 254.821 252.945 255.499C253.622 256.176 254.54 256.557 255.498 256.557C256.456 256.557 257.375 256.176 258.052 255.499C258.729 254.821 259.11 253.903 259.11 252.945V176.229L260.161 174.325H266.055C267.013 174.325 267.932 173.944 268.609 173.267C269.286 172.59 269.667 171.671 269.667 170.713C269.667 169.756 269.286 168.837 268.609 168.16C267.932 167.482 267.013 167.102 266.055 167.102Z" fill="#3F3D56"/>
<path d="M172.711 164.88H128.817C127.743 164.88 126.873 165.75 126.873 166.824C126.873 167.898 127.743 168.769 128.817 168.769H172.711C173.785 168.769 174.656 167.898 174.656 166.824C174.656 165.75 173.785 164.88 172.711 164.88Z" fill="#CCCCCC"/>
<path d="M202.159 168.769H152.709C151.751 168.768 150.833 168.387 150.156 167.71C149.479 167.033 149.098 166.115 149.097 165.157V137.932C149.098 136.974 149.479 136.056 150.156 135.379C150.833 134.702 151.751 134.322 152.709 134.32H202.159C203.116 134.322 204.034 134.702 204.711 135.379C205.389 136.056 205.769 136.974 205.77 137.932V165.157C205.769 166.115 205.389 167.033 204.711 167.71C204.034 168.387 203.116 168.768 202.159 168.769Z" fill="#CCCCCC"/>
<path d="M177.434 154.878C179.275 154.878 180.768 153.386 180.768 151.545C180.768 149.703 179.275 148.211 177.434 148.211C175.593 148.211 174.1 149.703 174.1 151.545C174.1 153.386 175.593 154.878 177.434 154.878Z" fill="white"/>
<path d="M239.897 101.69V4.17904C239.898 3.07108 240.339 2.00885 241.122 1.2254C241.906 0.441952 242.968 0.00126027 244.076 0H321.156C322.264 0.00126027 323.326 0.441952 324.11 1.2254C324.893 2.00885 325.334 3.07108 325.335 4.17904V101.69C325.334 102.798 324.893 103.86 324.11 104.644C323.326 105.427 322.264 105.868 321.156 105.869H244.076C242.968 105.868 241.906 105.427 241.122 104.644C240.339 103.86 239.898 102.798 239.897 101.69ZM244.076 0.928679C243.214 0.929646 242.388 1.2724 241.779 1.88176C241.169 2.49111 240.827 3.31729 240.826 4.17904V101.69C240.827 102.552 241.169 103.378 241.779 103.987C242.388 104.597 243.214 104.939 244.076 104.94H321.156C322.018 104.939 322.844 104.597 323.453 103.987C324.063 103.378 324.406 102.552 324.407 101.69V4.17904C324.406 3.31729 324.063 2.49111 323.453 1.88176C322.844 1.2724 322.018 0.929646 321.156 0.928679H244.076Z" fill="#E6E6E6"/>
<path d="M286.939 44.7816V24.7595C286.939 24.2055 287.159 23.6744 287.551 23.2827C287.943 22.8909 288.474 22.6706 289.028 22.67H305.995C306.549 22.6706 307.08 22.8909 307.472 23.2827C307.863 23.6744 308.084 24.2055 308.084 24.7595V44.7816C308.084 45.3356 307.863 45.8667 307.472 46.2584C307.08 46.6502 306.549 46.8705 305.995 46.8711H289.028C288.474 46.8705 287.943 46.6502 287.551 46.2584C287.159 45.8667 286.939 45.3356 286.939 44.7816Z" fill="#0B85C3"/>
<path d="M253.97 54.0684V34.0463C253.971 33.4923 254.191 32.9612 254.583 32.5695C254.975 32.1778 255.506 31.9574 256.06 31.9568H273.027C273.581 31.9574 274.112 32.1778 274.504 32.5695C274.895 32.9612 275.116 33.4923 275.116 34.0463V54.0684C275.116 54.6224 274.895 55.1535 274.504 55.5453C274.112 55.937 273.581 56.1573 273.027 56.1579H256.06C255.506 56.1573 254.975 55.937 254.583 55.5453C254.191 55.1535 253.971 54.6224 253.97 54.0684Z" fill="#CCCCCC"/>
<path d="M280.438 82.393V62.3709C280.438 61.8169 280.659 61.2858 281.05 60.8941C281.442 60.5023 281.973 60.282 282.527 60.2814H299.494C300.048 60.282 300.579 60.5023 300.971 60.8941C301.363 61.2858 301.583 61.8169 301.584 62.3709V82.393C301.583 82.947 301.363 83.4781 300.971 83.8698C300.579 84.2616 300.048 84.4819 299.494 84.4825H282.527C281.973 84.4819 281.442 84.2616 281.05 83.8698C280.659 83.4781 280.438 82.947 280.438 82.393Z" fill="#FAAB34"/>
<path d="M409.835 10.1607C411.819 10.1607 413.428 8.55198 413.428 6.56755C413.428 4.58312 411.819 2.97443 409.835 2.97443C407.85 2.97443 406.242 4.58312 406.242 6.56755C406.242 8.55198 407.85 10.1607 409.835 10.1607Z" fill="#F2F2F2"/>
<path d="M409.835 24.4808C411.819 24.4808 413.428 22.8721 413.428 20.8877C413.428 18.9033 411.819 17.2946 409.835 17.2946C407.85 17.2946 406.242 18.9033 406.242 20.8877C406.242 22.8721 407.85 24.4808 409.835 24.4808Z" fill="#F2F2F2"/>
<path d="M409.835 38.801C411.819 38.801 413.428 37.1923 413.428 35.2079C413.428 33.2234 411.819 31.6147 409.835 31.6147C407.85 31.6147 406.242 33.2234 406.242 35.2079C406.242 37.1923 407.85 38.801 409.835 38.801Z" fill="#F2F2F2"/>
<path d="M409.835 53.1211C411.819 53.1211 413.428 51.5124 413.428 49.5279C413.428 47.5435 411.819 45.9348 409.835 45.9348C407.85 45.9348 406.242 47.5435 406.242 49.5279C406.242 51.5124 407.85 53.1211 409.835 53.1211Z" fill="#F2F2F2"/>
<path d="M394.833 10.1607C396.817 10.1607 398.426 8.55198 398.426 6.56755C398.426 4.58312 396.817 2.97443 394.833 2.97443C392.849 2.97443 391.24 4.58312 391.24 6.56755C391.24 8.55198 392.849 10.1607 394.833 10.1607Z" fill="#F2F2F2"/>
<path d="M394.833 24.4808C396.817 24.4808 398.426 22.8721 398.426 20.8877C398.426 18.9033 396.817 17.2946 394.833 17.2946C392.849 17.2946 391.24 18.9033 391.24 20.8877C391.24 22.8721 392.849 24.4808 394.833 24.4808Z" fill="#F2F2F2"/>
<path d="M394.833 38.801C396.817 38.801 398.426 37.1923 398.426 35.2079C398.426 33.2234 396.817 31.6147 394.833 31.6147C392.849 31.6147 391.24 33.2234 391.24 35.2079C391.24 37.1923 392.849 38.801 394.833 38.801Z" fill="#F2F2F2"/>
<path d="M394.833 53.1211C396.817 53.1211 398.426 51.5124 398.426 49.5279C398.426 47.5435 396.817 45.9348 394.833 45.9348C392.849 45.9348 391.24 47.5435 391.24 49.5279C391.24 51.5124 392.849 53.1211 394.833 53.1211Z" fill="#F2F2F2"/>
<path d="M379.831 10.1607C381.816 10.1607 383.424 8.55198 383.424 6.56755C383.424 4.58312 381.816 2.97443 379.831 2.97443C377.847 2.97443 376.238 4.58312 376.238 6.56755C376.238 8.55198 377.847 10.1607 379.831 10.1607Z" fill="#F2F2F2"/>
<path d="M379.831 24.4808C381.816 24.4808 383.424 22.8721 383.424 20.8877C383.424 18.9033 381.816 17.2946 379.831 17.2946C377.847 17.2946 376.238 18.9033 376.238 20.8877C376.238 22.8721 377.847 24.4808 379.831 24.4808Z" fill="#F2F2F2"/>
<path d="M379.831 38.801C381.816 38.801 383.424 37.1923 383.424 35.2079C383.424 33.2234 381.816 31.6147 379.831 31.6147C377.847 31.6147 376.238 33.2234 376.238 35.2079C376.238 37.1923 377.847 38.801 379.831 38.801Z" fill="#F2F2F2"/>
<path d="M379.831 53.1211C381.816 53.1211 383.424 51.5124 383.424 49.5279C383.424 47.5435 381.816 45.9348 379.831 45.9348C377.847 45.9348 376.238 47.5435 376.238 49.5279C376.238 51.5124 377.847 53.1211 379.831 53.1211Z" fill="#F2F2F2"/>
<path d="M364.83 10.1607C366.814 10.1607 368.423 8.55198 368.423 6.56755C368.423 4.58312 366.814 2.97443 364.83 2.97443C362.845 2.97443 361.236 4.58312 361.236 6.56755C361.236 8.55198 362.845 10.1607 364.83 10.1607Z" fill="#F2F2F2"/>
<path d="M364.83 24.4808C366.814 24.4808 368.423 22.8721 368.423 20.8877C368.423 18.9033 366.814 17.2946 364.83 17.2946C362.845 17.2946 361.236 18.9033 361.236 20.8877C361.236 22.8721 362.845 24.4808 364.83 24.4808Z" fill="#F2F2F2"/>
<path d="M364.83 38.801C366.814 38.801 368.423 37.1923 368.423 35.2079C368.423 33.2234 366.814 31.6147 364.83 31.6147C362.845 31.6147 361.236 33.2234 361.236 35.2079C361.236 37.1923 362.845 38.801 364.83 38.801Z" fill="#F2F2F2"/>
<path d="M364.83 53.1211C366.814 53.1211 368.423 51.5124 368.423 49.5279C368.423 47.5435 366.814 45.9348 364.83 45.9348C362.845 45.9348 361.236 47.5435 361.236 49.5279C361.236 51.5124 362.845 53.1211 364.83 53.1211Z" fill="#F2F2F2"/>
<path d="M349.828 10.1607C351.812 10.1607 353.421 8.55198 353.421 6.56755C353.421 4.58312 351.812 2.97443 349.828 2.97443C347.843 2.97443 346.235 4.58312 346.235 6.56755C346.235 8.55198 347.843 10.1607 349.828 10.1607Z" fill="#F2F2F2"/>
<path d="M349.828 24.4808C351.812 24.4808 353.421 22.8721 353.421 20.8877C353.421 18.9033 351.812 17.2946 349.828 17.2946C347.843 17.2946 346.235 18.9033 346.235 20.8877C346.235 22.8721 347.843 24.4808 349.828 24.4808Z" fill="#F2F2F2"/>
<path d="M349.828 38.801C351.812 38.801 353.421 37.1923 353.421 35.2079C353.421 33.2234 351.812 31.6147 349.828 31.6147C347.843 31.6147 346.235 33.2234 346.235 35.2079C346.235 37.1923 347.843 38.801 349.828 38.801Z" fill="#F2F2F2"/>
<path d="M349.828 53.1211C351.812 53.1211 353.421 51.5124 353.421 49.5279C353.421 47.5435 351.812 45.9348 349.828 45.9348C347.843 45.9348 346.235 47.5435 346.235 49.5279C346.235 51.5124 347.843 53.1211 349.828 53.1211Z" fill="#F2F2F2"/>
<path d="M334.826 10.1607C336.811 10.1607 338.419 8.55198 338.419 6.56755C338.419 4.58312 336.811 2.97443 334.826 2.97443C332.842 2.97443 331.233 4.58312 331.233 6.56755C331.233 8.55198 332.842 10.1607 334.826 10.1607Z" fill="#F2F2F2"/>
<path d="M334.826 24.4808C336.811 24.4808 338.419 22.8721 338.419 20.8877C338.419 18.9033 336.811 17.2946 334.826 17.2946C332.842 17.2946 331.233 18.9033 331.233 20.8877C331.233 22.8721 332.842 24.4808 334.826 24.4808Z" fill="#F2F2F2"/>
<path d="M334.826 38.801C336.811 38.801 338.419 37.1923 338.419 35.2079C338.419 33.2234 336.811 31.6147 334.826 31.6147C332.842 31.6147 331.233 33.2234 331.233 35.2079C331.233 37.1923 332.842 38.801 334.826 38.801Z" fill="#F2F2F2"/>
<path d="M334.826 53.1211C336.811 53.1211 338.419 51.5124 338.419 49.5279C338.419 47.5435 336.811 45.9348 334.826 45.9348C332.842 45.9348 331.233 47.5435 331.233 49.5279C331.233 51.5124 332.842 53.1211 334.826 53.1211Z" fill="#F2F2F2"/>
<path d="M349.302 134.044C349.007 133.235 348.887 132.373 348.949 131.514C349.01 130.655 349.253 129.818 349.66 129.06C350.068 128.301 350.631 127.637 351.313 127.111C351.995 126.585 352.78 126.209 353.618 126.008C353.883 125.946 354.153 125.902 354.424 125.877L367.927 102.208L364.518 96.3505L373.005 89.8027L379.498 98.8214C380.273 99.9056 380.677 101.211 380.651 102.543C380.625 103.875 380.17 105.163 379.354 106.216L360.816 129.949C360.883 130.137 360.941 130.329 360.988 130.523C361.189 131.361 361.211 132.232 361.052 133.078C360.893 133.925 360.557 134.728 360.066 135.436C359.575 136.143 358.94 136.739 358.203 137.184C357.466 137.629 356.643 137.914 355.788 138.019C355.54 138.05 355.29 138.066 355.039 138.066C353.787 138.061 352.566 137.674 351.54 136.955C350.514 136.236 349.733 135.22 349.302 134.044Z" fill="#FFB8B8"/>
<path d="M322.957 250.522L316.146 250.521L312.905 224.247L322.959 224.248L322.957 250.522Z" fill="#FFB8B8"/>
<path d="M311.28 248.575H324.417V256.846H303.009C303.009 255.76 303.223 254.684 303.638 253.681C304.054 252.677 304.663 251.765 305.431 250.997C306.199 250.229 307.111 249.62 308.115 249.204C309.118 248.789 310.194 248.575 311.28 248.575Z" fill="#2F2E41"/>
<path d="M379.075 250.522L372.263 250.521L369.023 224.247L379.076 224.248L379.075 250.522Z" fill="#FFB8B8"/>
<path d="M367.398 248.575H380.535V256.846H359.126C359.126 255.76 359.34 254.684 359.756 253.681C360.172 252.677 360.781 251.765 361.549 250.997C362.317 250.229 363.229 249.62 364.232 249.204C365.236 248.789 366.311 248.575 367.398 248.575Z" fill="#2F2E41"/>
<path d="M374.894 91.082L359.601 96.8934L355.867 86.5219C355.371 85.1447 355.378 83.6366 355.887 82.2641C356.396 80.8915 357.373 79.743 358.646 79.0213C359.935 78.2913 361.441 78.0461 362.895 78.3298C364.348 78.6135 365.652 79.4075 366.571 80.5684L374.894 91.082Z" fill="#0B85C3"/>
<path d="M323.546 229.242L310.719 226.316C310.037 226.16 309.44 225.751 309.047 225.171C308.654 224.592 308.495 223.886 308.601 223.194C313.748 190.574 318.699 171.471 331.46 147.212C331.638 146.76 333.63 137.579 334.931 131.496C334.916 130.826 335.145 130.173 335.576 129.66C336.007 129.146 336.609 128.807 337.272 128.705L361.188 125.024C361.549 124.899 361.93 124.842 362.311 124.855L362.55 124.9L362.547 125.136C362.544 125.379 362.302 125.416 362.212 125.43L361.894 125.479C362.256 125.648 362.589 125.874 362.88 126.149C373.359 138.753 378.808 180.066 385.728 225.707C385.767 226.078 385.722 226.452 385.596 226.803C385.471 227.154 385.269 227.472 385.004 227.734C384.754 228.008 384.45 228.227 384.112 228.38C383.775 228.533 383.409 228.616 383.039 228.623L367.758 228.996C367.087 229.011 366.433 228.781 365.918 228.35C365.404 227.919 365.063 227.316 364.961 226.652L354.668 167.174C354.597 166.709 354.38 166.279 354.048 165.947C353.716 165.614 353.286 165.396 352.822 165.325C352.357 165.253 351.882 165.331 351.465 165.548C351.049 165.766 350.712 166.11 350.504 166.532C342.201 183.442 334.457 198.066 326.831 227.242C326.68 227.834 326.336 228.358 325.854 228.733C325.372 229.108 324.779 229.311 324.168 229.312C323.959 229.312 323.75 229.288 323.546 229.242Z" fill="#2F2E41"/>
<path d="M335.995 132.176C335.674 131.948 335.404 131.654 335.204 131.314C335.005 130.974 334.88 130.596 334.838 130.204C332.879 111.919 334.243 97.609 339.008 86.4573C339.847 84.5338 341.112 82.8257 342.706 81.4611C344.3 80.0965 346.183 79.1111 348.213 78.5788L360.575 77.9548L360.639 77.9857C363.429 79.3521 365.704 81.5811 367.127 84.3422C368.55 87.1033 369.046 90.2495 368.54 93.3143C364.564 103.795 361.234 114.707 363.773 123.51C363.88 123.878 363.911 124.264 363.865 124.644C363.818 125.024 363.696 125.391 363.505 125.723C363.319 126.044 363.069 126.323 362.772 126.544C362.474 126.765 362.134 126.922 361.773 127.006L338.227 132.607C337.846 132.698 337.45 132.707 337.065 132.632C336.68 132.558 336.315 132.402 335.995 132.176Z" fill="#0B85C3"/>
<path d="M330.674 105.935L306.963 87.2297C306.774 87.2961 306.582 87.3528 306.388 87.3995C305.551 87.5953 304.682 87.6128 303.838 87.4509C302.994 87.2889 302.193 86.9513 301.488 86.4597C300.778 85.9679 300.182 85.3301 299.739 84.589C299.295 83.848 299.015 83.0209 298.918 82.1629C298.759 80.7914 299.068 79.4063 299.795 78.2325C300.522 77.0587 301.624 76.1651 302.923 75.6965C303.734 75.4058 304.597 75.2895 305.455 75.3555C306.314 75.4214 307.149 75.668 307.906 76.0791C308.663 76.4902 309.324 77.0566 309.847 77.7411C310.369 78.4256 310.741 79.2128 310.939 80.0511C311 80.3168 311.042 80.5864 311.066 80.858L334.669 94.4747L340.543 91.093L347.05 99.6117L337.93 106.112C336.862 106.867 335.58 107.257 334.273 107.225C332.966 107.193 331.704 106.741 330.674 105.935Z" fill="#FFB8B8"/>
<path d="M349.943 102.265L336.415 93.0649L342.773 84.0601C343.617 82.8644 344.857 82.0056 346.273 81.6355C347.689 81.2654 349.19 81.4079 350.512 82.0377C351.848 82.6747 352.913 83.7688 353.514 85.1222C354.114 86.4756 354.211 87.9991 353.787 89.4177L349.943 102.265Z" fill="#0B85C3"/>
<path d="M356.45 73.3374C363.986 73.3374 370.096 67.2277 370.096 59.6909C370.096 52.1541 363.986 46.0443 356.45 46.0443C348.913 46.0443 342.803 52.1541 342.803 59.6909C342.803 67.2277 348.913 73.3374 356.45 73.3374Z" fill="#FFB8B8"/>
<path d="M351.446 57.6583C347.939 60.0589 343.334 62.5265 339.751 59.9701C337.399 58.2915 336.658 55.1832 337.612 52.4554C339.327 47.5501 344.04 45.3906 348.547 43.7352C354.405 41.5833 360.785 39.8713 366.833 41.4124C372.881 42.9536 378.226 48.8093 377.134 54.9545C376.256 59.8963 371.595 64.0082 372.256 68.9836C372.922 73.9909 378.554 76.6266 383.525 77.5216C388.497 78.4165 394.06 78.7041 397.633 82.275C402.19 86.8304 401.052 94.9727 396.764 99.7823C392.475 104.592 386.003 106.772 379.732 108.254C371.423 110.218 362.436 111.25 354.544 107.991C346.653 104.732 340.512 95.9593 342.798 87.7332C343.764 84.2584 346.038 81.3218 348.237 78.4629C350.435 75.6041 352.661 72.6145 353.5 69.107C354.199 66.184 353.681 62.7903 351.743 60.5977C351.39 60.214 351.168 59.7284 351.109 59.2106C351.05 58.6929 351.156 58.1697 351.413 57.7161L351.446 57.6583Z" fill="#2F2E41"/>
</svg>
