<svg width="20" height="21" viewBox="0 0 20 21" fill="none" xmlns="http://www.w3.org/2000/svg">
<path d="M18.3333 14.5714V17.0714C18.3343 17.3035 18.2867 17.5332 18.1937 17.7459C18.1008 17.9585 17.9644 18.1494 17.7934 18.3063C17.6224 18.4632 17.4205 18.5827 17.2006 18.657C16.9808 18.7314 16.7478 18.759 16.5167 18.7381C13.9523 18.4594 11.4892 17.5832 9.32498 16.1797C7.31151 14.9003 5.60443 13.1932 4.32499 11.1797C2.91663 9.00575 2.04019 6.53058 1.76665 3.95475C1.74583 3.7243 1.77321 3.49205 1.84707 3.27277C1.92092 3.05349 2.03963 2.85199 2.19562 2.6811C2.35162 2.51021 2.54149 2.37367 2.75314 2.28018C2.9648 2.18669 3.1936 2.1383 3.42499 2.13808H5.92499C6.32941 2.1341 6.72148 2.27731 7.02812 2.54103C7.33476 2.80474 7.53505 3.17095 7.59165 3.57141C7.69717 4.37147 7.89286 5.15702 8.17499 5.91308C8.2871 6.21135 8.31137 6.53551 8.24491 6.84715C8.17844 7.15879 8.02404 7.44484 7.79998 7.67141L6.74165 8.72975C7.92795 10.816 9.65536 12.5435 11.7417 13.7297L12.8 12.6714C13.0266 12.4474 13.3126 12.293 13.6243 12.2265C13.9359 12.16 14.26 12.1843 14.5583 12.2964C15.3144 12.5785 16.0999 12.7742 16.9 12.8797C17.3048 12.9369 17.6745 13.1408 17.9388 13.4527C18.203 13.7646 18.3435 14.1627 18.3333 14.5714Z" stroke="white" stroke-width="1.67" stroke-linecap="round" stroke-linejoin="round"/>
</svg>
