<svg viewBox="0 0 20 13" fill="none" xmlns="http://www.w3.org/2000/svg">
<path d="M10 9.99304C11.0417 9.99304 11.9271 9.62846 12.6563 8.89929C13.3854 8.17013 13.75 7.28471 13.75 6.24304C13.75 5.20138 13.3854 4.31596 12.6563 3.58679C11.9271 2.85763 11.0417 2.49304 10 2.49304C8.95834 2.49304 8.07293 2.85763 7.34376 3.58679C6.61459 4.31596 6.25001 5.20138 6.25001 6.24304C6.25001 7.28471 6.61459 8.17013 7.34376 8.89929C8.07293 9.62846 8.95834 9.99304 10 9.99304ZM10 8.49304C9.37501 8.49304 8.84376 8.27429 8.40626 7.83679C7.96876 7.39929 7.75001 6.86804 7.75001 6.24304C7.75001 5.61804 7.96876 5.08679 8.40626 4.64929C8.84376 4.21179 9.37501 3.99304 10 3.99304C10.625 3.99304 11.1563 4.21179 11.5938 4.64929C12.0313 5.08679 12.25 5.61804 12.25 6.24304C12.25 6.86804 12.0313 7.39929 11.5938 7.83679C11.1563 8.27429 10.625 8.49304 10 8.49304ZM10 12.493C7.97223 12.493 6.12501 11.9271 4.45834 10.7951C2.79168 9.66318 1.58334 8.14582 0.833344 6.24304C1.58334 4.34026 2.79168 2.8229 4.45834 1.69096C6.12501 0.559014 7.97223 -0.00695801 10 -0.00695801C12.0278 -0.00695801 13.875 0.559014 15.5417 1.69096C17.2083 2.8229 18.4167 4.34026 19.1667 6.24304C18.4167 8.14582 17.2083 9.66318 15.5417 10.7951C13.875 11.9271 12.0278 12.493 10 12.493ZM10 10.8264C11.5695 10.8264 13.0104 10.4132 14.3229 9.58679C15.6354 8.7604 16.6389 7.64582 17.3333 6.24304C16.6389 4.84026 15.6354 3.72568 14.3229 2.89929C13.0104 2.0729 11.5695 1.65971 10 1.65971C8.43057 1.65971 6.98959 2.0729 5.67709 2.89929C4.36459 3.72568 3.36112 4.84026 2.66668 6.24304C3.36112 7.64582 4.36459 8.7604 5.67709 9.58679C6.98959 10.4132 8.43057 10.8264 10 10.8264Z" />
</svg>
