<svg width="14" height="13" viewBox="0 0 14 13" fill="none" xmlns="http://www.w3.org/2000/svg">
<path d="M4.08325 3.26659L5.94992 0.849919C6.08325 0.672141 6.24158 0.541585 6.42492 0.458252C6.60825 0.374919 6.79992 0.333252 6.99992 0.333252C7.19992 0.333252 7.39158 0.374919 7.57492 0.458252C7.75825 0.541585 7.91658 0.672141 8.04992 0.849919L9.91658 3.26659L12.7499 4.21659C13.0388 4.30547 13.2666 4.46936 13.4333 4.70825C13.5999 4.94714 13.6833 5.21103 13.6833 5.49992C13.6833 5.63325 13.6638 5.76659 13.6249 5.89992C13.586 6.03325 13.5221 6.16103 13.4333 6.28325L11.5999 8.88325L11.6666 11.6166C11.6777 12.0055 11.5499 12.3333 11.2833 12.5999C11.0166 12.8666 10.7055 12.9999 10.3499 12.9999C10.3277 12.9999 10.2055 12.9833 9.98325 12.9499L6.99992 12.1166L4.01659 12.9499C3.96103 12.9721 3.89992 12.986 3.83325 12.9916C3.76659 12.9971 3.70547 12.9999 3.64992 12.9999C3.29436 12.9999 2.98325 12.8666 2.71659 12.5999C2.44992 12.3333 2.32214 12.0055 2.33325 11.6166L2.39992 8.86659L0.583252 6.28325C0.494363 6.16103 0.430474 6.03325 0.391585 5.89992C0.352696 5.76659 0.333252 5.63325 0.333252 5.49992C0.333252 5.22214 0.413808 4.96381 0.574919 4.72492C0.73603 4.48603 0.96103 4.31659 1.24992 4.21659L4.08325 3.26659Z" fill="#FAAB34"/>
</svg>
