<svg width="12" height="14" viewBox="0 0 12 14" fill="none" xmlns="http://www.w3.org/2000/svg">
<path d="M6.00008 6.99992C6.36675 6.99992 6.68064 6.86936 6.94175 6.60825C7.20286 6.34714 7.33342 6.03325 7.33342 5.66658C7.33342 5.29992 7.20286 4.98603 6.94175 4.72492C6.68064 4.46381 6.36675 4.33325 6.00008 4.33325C5.63341 4.33325 5.31953 4.46381 5.05841 4.72492C4.7973 4.98603 4.66675 5.29992 4.66675 5.66658C4.66675 6.03325 4.7973 6.34714 5.05841 6.60825C5.31953 6.86936 5.63341 6.99992 6.00008 6.99992ZM6.00008 13.6666C4.21119 12.1444 2.87508 10.7305 1.99175 9.42492C1.10841 8.11936 0.666748 6.91103 0.666748 5.79992C0.666748 4.13325 1.20286 2.80547 2.27508 1.81659C3.3473 0.827696 4.58897 0.333252 6.00008 0.333252C7.41119 0.333252 8.65286 0.827696 9.72508 1.81659C10.7973 2.80547 11.3334 4.13325 11.3334 5.79992C11.3334 6.91103 10.8917 8.11936 10.0084 9.42492C9.12508 10.7305 7.78897 12.1444 6.00008 13.6666Z" fill="#1C1B1F"/>
</svg>
