<svg width="12" height="14" viewBox="0 0 12 14" fill="none" xmlns="http://www.w3.org/2000/svg">
<path d="M5.99984 6.99992C6.3665 6.99992 6.68039 6.86936 6.9415 6.60825C7.20262 6.34714 7.33317 6.03325 7.33317 5.66658C7.33317 5.29992 7.20262 4.98603 6.9415 4.72492C6.68039 4.46381 6.3665 4.33325 5.99984 4.33325C5.63317 4.33325 5.31928 4.46381 5.05817 4.72492C4.79706 4.98603 4.6665 5.29992 4.6665 5.66658C4.6665 6.03325 4.79706 6.34714 5.05817 6.60825C5.31928 6.86936 5.63317 6.99992 5.99984 6.99992ZM5.99984 13.6666C4.21095 12.1444 2.87484 10.7305 1.9915 9.42492C1.10817 8.11936 0.666504 6.91103 0.666504 5.79992C0.666504 4.13325 1.20262 2.80547 2.27484 1.81659C3.34706 0.827696 4.58873 0.333252 5.99984 0.333252C7.41095 0.333252 8.65262 0.827696 9.72484 1.81659C10.7971 2.80547 11.3332 4.13325 11.3332 5.79992C11.3332 6.91103 10.8915 8.11936 10.0082 9.42492C9.12484 10.7305 7.78873 12.1444 5.99984 13.6666Z" fill="#1C1B1F"/>
</svg>
